PathFileType	4	(X/Y/Z)	pose_F01_0-48.trc
DataRate	CameraRate	NumFrames	NumMarkers	Units	OrigDataRate	OrigDataStartFrame	OrigNumFrames
30	30	7	21	m	30	0	48
Frame#	Time	CHip			RHip			RKnee			RAnkle			RBigToe			RSmallToe			RHeel			LHip			LKnee			LAnkle			LBigToe			LSmallToe			LHeel			Neck			Nose			RShoulder			RElbow			RWrist			LShoulder			LElbow			LWrist			
		X1	Y1	Z1	X2	Y2	Z2	X3	Y3	Z3	X4	Y4	Z4	X5	Y5	Z5	X6	Y6	Z6	X7	Y7	Z7	X8	Y8	Z8	X9	Y9	Z9	X10	Y10	Z10	X11	Y11	Z11	X12	Y12	Z12	X13	Y13	Z13	X14	Y14	Z14	X15	Y15	Z15	X16	Y16	Z16	X17	Y17	Z17	X18	Y18	Z18	X19	Y19	Z19	X20	Y20	Z20	X21	Y21	Z21	
0	0.0	-0.10969517340569622	1.8685636749851875	-0.6596543174788857	-0.12511767713431013	1.8673179040290948	-0.6005875429921247	-0.15753722406184492	1.7227451238997076	-0.5138136319749012													-0.09208514499475931	1.8687351814961006	-0.7241233690730066	-0.08853809378492891	1.7220231524897716	-0.6873894372985003	-0.10266905482892633	1.600021058710472	-0.655147303894028	-0.10720349312037085	1.5743845960118794	-0.7195213487873874	-0.09804087503569045	1.5789098385775262	-0.7286340896244603	-0.10091473013203367	1.588497980396339	-0.6278232112493115	-0.09384856254727768	2.0294496129681967	-0.6854273900501716	-0.11429321806753293	2.0922851174521973	-0.7190489316823991	-0.11306957791316018	2.031264151201846	-0.5996532074906558	-0.14150227498704848	1.995333212324399	-0.5237491741610816	-0.21857844590782838	1.9724174717230545	-0.5161504948008603	-0.06540147816989539	2.029226938015058	-0.775209304131188	-1.5369086245412455	1.8773983161997525	0.8118111992276784	-0.0593413375179137	1.8781411373390662	-0.7924554082569053
1	0.03333333333333333	-0.10731139954205499	1.8689585933368338	-0.6620035364371863	-0.12478814158504908	1.8676395939684673	-0.6004949598130234	-0.15865000978797766	1.723833380614133	-0.517077266621088													-0.09041237661128318	1.8695098451698533	-0.729524558357922	-0.0880843200359437	1.7249978906798706	-0.688308297921408	-0.10271090012633302	1.6000156002913757	-0.6550360419827544	-0.10501874352833318	1.5721095156935876	-0.721188060229714	-0.09571669494235925	1.5786573542170894	-0.7309346755683825	-0.10307104976683548	1.5886736164055095	-0.625133617805365	-0.091747867202726	2.029599304574508	-0.6877562097939646	-0.11428558619465165	2.0923065779864873	-0.7190465324934654	-0.11300854904392843	2.031448348325361	-0.5997008282619302	-0.13996401337357728	1.9948826254791003	-0.5254132933804513	-0.21857844590782838	1.9724174717230545	-0.5161504948008603	-0.06605944603866697	2.029327153031812	-0.7781883280174279	-1.5369086245412455	1.8773983161997525	0.8118111992276784	-0.058142357998403775	1.8779860258801735	-0.7934446729089828
2	0.06666666666666667	-0.10492762567841375	1.86935351168848	-0.664352755395487	-0.12445860603578804	1.8679612839078399	-0.600402376633922	-0.1597627955141104	1.7249216373285585	-0.5203409012672748													-0.08873960822780705	1.870284508843606	-0.7349257476428374	-0.08763054628695849	1.7279726288699697	-0.6892271585443157	-0.10275274542373972	1.6000101418722794	-0.6549247800714809	-0.10283399393629551	1.5698344353752958	-0.7228547716720407	-0.09339251484902805	1.5784048698566526	-0.7332352615123048	-0.1052273694016373	1.58884925241468	-0.6224440243614185	-0.08964717185817432	2.0297489961808193	-0.6900850295377575	-0.11427795432177038	2.0923280385207774	-0.7190441333045317	-0.11294752017469668	2.0316325454488764	-0.5997484490332046	-0.1384257517601061	1.9944320386338017	-0.527077412599821	-0.21857844590782838	1.9724174717230545	-0.5161504948008603	-0.06671741390743854	2.029427368048566	-0.7811673519036677	-1.5369086245412455	1.8773983161997525	0.8118111992276784	-0.05694337847889385	1.8778309144212808	-0.7944339375610603
3	0.1	-0.10509393497802881	1.869049570767705	-0.6644339958508603	-0.12246322724079503	1.8692122500542756	-0.6029816277342528	-0.158582488292964	1.7261961909814072	-0.5173696477062311													-0.08885132973417838	1.8686836066475607	-0.7346893402480188	-0.08774491370877338	1.7265102000392056	-0.6888796053179733	-0.10484626868445389	1.599963167156849	-0.6527671777955141	-0.10294436521873884	1.570453696669406	-0.7228358145471155	-0.09349082012847162	1.5788447283687868	-0.7332088052742013	-0.1052540841143879	1.588892787875208	-0.6225087533285184	-0.0895440057737808	2.0298775977372805	-0.6900889310754581	-0.11224195877231871	2.091049445728872	-0.721403208048191	-0.1108718593091701	2.031844251297856	-0.6020273465224415	-0.13688749014663493	1.9939814517885033	-0.5287415318191907	-0.21857844590782838	1.9724174717230545	-0.5161504948008603	-0.0659628053908445	2.0293401842752394	-0.7782474960671717	-1.5369086245412455	1.8773983161997525	0.8118111992276784	-0.05574439895938393	1.877675802962388	-0.7954232022131379
4	0.13333333333333333	-0.10274875472364432	1.8668228862395377	-0.6662259062617221	-0.11951369411001944	1.865516525503247	-0.6015494912645694	-0.15871523806885643	1.7247726326084754	-0.5171151158692104													-0.08868652698102343	1.8675727232741621	-0.734558494958197	-0.08561488635161876	1.726612061641672	-0.6911666374387544	-0.10278882069396729	1.6002691957818453	-0.6549966672634504	-0.10372383861899023	1.5705293085593692	-0.7259672592873799	-0.09347899878831277	1.5788726030632265	-0.7332779531162641	-0.10518386873642646	1.5885867497759805	-0.6228821762133737	-0.08738028527220626	2.030158145116764	-0.6923908803221774	-0.11215504348111664	2.0912573438480813	-0.7213960708712793	-0.10799752115847565	2.0315208273733134	-0.6012720799860746	-0.13534922853316375	1.9935308649432049	-0.5304056510385604	-0.21857844590782838	1.9724174717230545	-0.5161504948008603	-0.06452403199774373	2.0283770895007582	-0.7836140190551216	-1.5369086245412455	1.8773983161997525	0.8118111992276784	-0.054545419439874	1.8775206915034952	-0.7964124668652154
5	0.16666666666666666	-0.09971006481935138	1.8684069035499835	-0.6656464710434048	-0.11933443546097007	1.866910388820167	-0.6017808489850724	-0.15659190177000384	1.726456957351108	-0.5197729693948084													-0.08628433002876698	1.8693162252736635	-0.7371029431992465	-0.08774034009438068	1.726481564907055	-0.6889374758643732	-0.10511821833553109	1.5984800954014415	-0.6521816132119397	-0.10288992673581067	1.570101506586754	-0.7228771618922147	-0.09347629139049941	1.5785991372317685	-0.7332441443633397	-0.10608059874934675	1.5887761449069866	-0.6255462455059623	-0.08746923549177328	2.0288313856024223	-0.6924753156619461	-0.11207605547884711	2.0914173035860775	-0.7213941796944213	-0.10999074211692485	2.031560888270021	-0.5990371780699262	-0.13381096691969258	1.9930802780979062	-0.5320697702579301	-0.21857844590782838	1.9724174717230545	-0.5161504948008603	-0.06445170887727505	2.028499856123536	-0.7836659192984703	-1.5369086245412455	1.8773983161997525	0.8118111992276784	-0.05334643992036408	1.8773655800446025	-0.7974017315172929
6	0.2	-0.09984185363352444	1.8679257366969728	-0.6657751901753478	-0.11734419666432845	1.868137929767821	-0.6042971607163112	-0.15870417481553925	1.7244763883583312	-0.5171231419031967													-0.08339547290647854	1.8704336479052086	-0.7367933624447852	-0.0857207503388038	1.725184620246999	-0.6908273284892821	-0.10496336212047061	1.6002622706548408	-0.6527393965763982	-0.10367325900010244	1.570215881509656	-0.7260223823151792	-0.09352861189497687	1.5787565829649743	-0.7332631974137919	-0.10589784908850365	1.5876672881549427	-0.6258241947405911	-0.08668932593277939	2.028637698175867	-0.6894975240799679	-0.1099910005180925	2.091328825678672	-0.7236308884748373	-0.10792729893524806	2.0306715560462836	-0.6013624427672697	-0.13227270530622137	1.9926296912526076	-0.5337338894772998	-0.21857844590782838	1.9724174717230545	-0.5161504948008603	-0.06382159557478753	2.028606057193158	-0.7806449315784458	-1.5369086245412455	1.8773983161997525	0.8118111992276784	-0.052147460400854155	1.8772104685857096	-0.7983909961693705
